# AST/ASF file generated using VICON BodyLanguage
# -----------------------------------------------
:version 1.10
:name VICON
:units
  mass 1.0
  length 0.45
  angle deg
:documentation
   .ast/.asf automatically generated from VICON data using
   VICON BodyBuilder and BodyLanguage model FoxedUp or BRILLIANT.MOD
:root
   order TX TY TZ RX RY RZ
   axis XYZ
   position 0 0 0  
   orientation 0 0 0 
:bonedata
  begin
     id 1 
     name lhipjoint
     direction 0.521689 -0.742065 0.420928 
     length 2.47002 
     axis 0 0 0  XYZ
  end
  begin
     id 2 
     name lfemur
     direction 0.34202 -0.939693 0  
     length 7.24654  
     axis 0 0 20  XYZ
    dof rx ry rz
    limits (-160.0 20.0)
           (-70.0 70.0)
           (-60.0 70.0)
  end
  begin
     id 3 
     name ltibia
     direction 0.34202 -0.939693 0   
     length 8.04849   
     axis 0 0 20   XYZ
    dof rx
    limits (-10.0 170.0)
  end
  begin
     id 4 
     name lfoot
     direction 0.0745411 -0.2048 0.975961   
     length 1.72367   
     axis -90 7.62852e-016 20   XYZ
    dof rx rz
    limits (-45.0 90.0)
           (-70.0 20.0)
  end
  begin
     id 5 
     name ltoes
     direction 1.53556e-011 -4.21901e-011 1   
     length 0.87311   
     axis -90 7.62852e-016 20   XYZ
    dof rx
    limits (-90.0 20.0)
  end
  begin
     id 6 
     name rhipjoint
     direction -0.52849 -0.738415 0.418857   
     length 2.48223  
     axis 0 0 0  XYZ 
  end
  begin
     id 7 
     name rfemur
     direction -0.34202 -0.939693 0   
     length 7.15571   
     axis 0 0 -20   XYZ
    dof rx ry rz
    limits (-160.0 20.0)
           (-70.0 70.0)
           (-70.0 60.0)
  end
  begin
     id 8 
     name rtibia
     direction -0.34202 -0.939693 0   
     length 7.81659   
     axis 0 0 -20   XYZ
    dof rx
    limits (-10.0 170.0)
 end
 begin
     id 9 
     name rfoot
     direction -0.0917348 -0.252039 0.963359   
     length 1.84382  
     axis -90 -7.62852e-016 -20   XYZ
    dof rx rz
    limits (-45.0 90.0)
           (-20.0 70.0)
  end
  begin
     id 10 
     name rtoes
     direction -1.53551e-011 -4.21879e-011 1   
     length 0.927771   
     axis -90 -7.62852e-016 -20   XYZ
    dof rx
    limits (-90.0 20.0)
  end
  begin
     id 11 
     name lowerback
     direction 0.00583058 0.999822 0.0179296   
     length 2.1429   
     axis 0 0 0   XYZ
    dof rx ry rz
    limits (-20.0 45.0)
           (-30.0 30.0)
           (-30.0 30.0)
  end
  begin
     id 12 
     name upperback
     direction -0.0137999 0.999752 -0.0175071   
     length 2.14252   
     axis 0 0 0   XYZ
    dof rx ry rz
    limits (-20.0 45.0)
           (-30.0 30.0)
           (-30.0 30.0)
  end
  begin
     id 13 
     name thorax
     direction -0.0158036 0.99955 -0.0254909   
     length 2.1383   
     axis 0 0 0   XYZ
    dof rx ry rz
    limits (-20.0 45.0)
           (-30.0 30.0)
           (-30.0 30.0)
  end
  begin
     id 14 
     name lowerneck
     direction -0.0101179 0.999403 -0.0330262   
     length 1.65808   
     axis 0 0 0   XYZ
    dof rx ry rz
    limits (-20.0 45.0)
           (-30.0 30.0)
           (-30.0 30.0)
  end
  begin
     id 15 
     name upperneck
     direction 0.0497734 0.995978 -0.074501   
     length 1.5897   
     axis 0 0 0   XYZ
    dof rx ry rz
    limits (-20.0 45.0)
           (-30.0 30.0)
           (-30.0 30.0)
  end
  begin
     id 16
     name head
     direction 0.0189524 0.999519 -0.0245438  
     length 1.74024  
     axis 0 0 0   XYZ
    dof rx ry rz
    limits (-20.0 45.0)
           (-30.0 30.0)
           (-30.0 30.0)
  end
  begin
     id 17 
     name lclavicle
     direction 0.945604 0.324422 0.0241537  
     length 3.59089  
     axis 0 0 0   XYZ
    dof ry rz
    limits (-20.0 10.0)
           (0.0 20.0)
  end
  begin
     id 18 
     name lhumerus
     direction 1 -4.48964e-011 -2.63524e-027   
     length 5.2391   
     axis 180 -30 -90   XYZ
    dof rx ry rz
    limits (-60.0 90.0)
           (-90.0 90.0)
           (-90.0 90.0)
  end
  begin
     id 19
     name lradius
     direction 1 -4.48969e-011 3.86978e-028   
     length 3.31467   
     axis 180 -30 -90   XYZ
    dof rx
    limits (-10.0 170.0)
  end
  begin
     id 20
     name lwrist
     direction 1 -4.48963e-011 7.20928e-028   
     length 1.65734   
     axis -5.52449e-016 90 90   XYZ
    dof ry
    limits (-180.0 0.0)
 end
  begin
     id 21 
     name lhand
     direction 1 -4.48964e-011 1.44186e-027   
     length 0.9659   
     axis -9.20027e-016 90 90   XYZ
    dof rx rz
    limits (-90.0 90.0)
           (-45.0 45.0)
  end
  begin
     id 22 
     name lfingers
     direction 1 -4.48965e-011 2.88371e-027   
     length 0.778733   
     axis -1.84005e-015 90 90   XYZ
    dof rx
    limits (0.0 90.0)
  end
  begin
     id 23
     name lthumb
     direction 0.707107 -6.34931e-011 0.707107   
     length 1.11811   
     axis -90 45 2.85299e-015   XYZ
    dof rx rz
    limits (-45.0 45.0)
           (-45.0 45.0)
  end
  begin
     id 24 
     name rclavicle
     direction -0.923762 0.370785 0.0958234   
     length 3.54196  
     axis 0 0 0   XYZ 
    dof ry rz
    limits (-10.0 20.0)
           (-20.0 0.0)
  end
  begin
     id 25 
     name rhumerus
     direction -1 -4.48966e-011 1.18702e-017  
     length 5.30252   
     axis 180 30 90   XYZ
    dof rx ry rz
    limits (-90.0 60.0)
           (-90.0 90.0)
           (-90.0 90.0)
  end
  begin
     id 26 
     name rradius
     direction -1 -4.48966e-011 4.46736e-027   
     length 3.67875   
     axis 180 30 90   XYZ
    dof rx
    limits (-10.0 170.0)
  end
  begin
     id 27 
     name rwrist
     direction -1 -4.48966e-011 7.20928e-028   
     length 1.83937   
     axis -5.52449e-016 -90 -90   XYZ
    dof ry
    limits (-180.0 0.0)
  end
  begin
     id 28
     name rhand
     direction -1 -4.48973e-011 1.44186e-027   
     length 0.594811   
     axis -9.20027e-016 -90 -90   XYZ
    dof rx rz
    limits (-90.0 90.0)
           (-45.0 45.0)
  end
  begin
     id 29
     name rfingers
     direction -1 -4.48963e-011 2.88371e-027   
     length 0.479552   
     axis -1.84005e-015 -90 -90   XYZ
    dof rx
    limits (0.0 90.0)
  end
  begin
     id 30
     name rthumb
     direction -0.707107 -6.34932e-011 0.707107   
     length 0.688544   
     axis -90 -45 -2.85299e-015   XYZ
    dof rx rz
    limits (-45.0 45.0)
           (-45.0 45.0)
  end
:hierarchy
  begin
    root lhipjoint rhipjoint lowerback
    lhipjoint lfemur
    lfemur ltibia
    ltibia lfoot
    lfoot ltoes
    rhipjoint rfemur
    rfemur rtibia
    rtibia rfoot
    rfoot rtoes
    lowerback upperback
    upperback thorax
    thorax lowerneck lclavicle rclavicle
    lowerneck upperneck
    upperneck head
    lclavicle lhumerus
    lhumerus lradius
    lradius lwrist
    lwrist lhand lthumb
    lhand lfingers
    rclavicle rhumerus
    rhumerus rradius
    rradius rwrist
    rwrist rhand rthumb
    rhand rfingers
  end

#!OML:ASF E:\acrobat2\Project_11_07_03\Capture day 1\Session 1\Acrobat.ASF
:FULLY-SPECIFIED
:DEGREES
99
root 6.43049 18.0955 -32.1492 3.65498 4.93598 1.25478
lowerback -7.22603 0.919744 -0.103601
upperback -1.2872 1.2805 -1.53463
thorax 2.75419 0.642543 -1.40297
lowerneck -1.43921 -2.48966 -0.566756
upperneck 5.17991 -3.45317 2.88254
head 1.92762 -1.66839 0.926948
rclavicle -5.26779e-015 1.19271e-015
rhumerus -40.8496 -10.491 -76.7149
rradius 23.0851
rwrist 9.32319
rhand 4.8367 -23.4935
rfingers 7.12502
rthumb 30.2142 -51.0417
lclavicle -5.26779e-015 1.19271e-015
lhumerus -32.1782 -6.54788 85.7245
lradius 20.954
lwrist 7.18215
lhand -5.55434 -11.9993
lfingers 7.12502
lthumb 20.2607 16.964
rfemur 4.71797 9.04736 20.7038
rtibia 0.779582
rfoot -20.3287 -20.4324
rtoes 4.91503
lfemur 0.066413 -1.68846 -17.7275
ltibia 3.72559
lfoot -2.91171 -7.73881
ltoes 29.1675
100
root 6.43121 18.0963 -32.1475 3.62256 4.95852 1.32793
lowerback -7.17759 0.932425 -0.128836
upperback -1.21349 1.30181 -1.59524
thorax 2.80469 0.653485 -1.44947
lowerneck -1.71678 -2.49369 -0.558006
upperneck 5.44021 -3.47273 2.99757
head 2.06506 -1.6704 0.957971
rclavicle -9.34288e-015 -4.37326e-015
rhumerus -40.8005 -10.8419 -76.5827
rradius 22.9447
rwrist 9.6032
rhand 4.90314 -23.4206
rfingers 7.12502
rthumb 30.2776 -50.9572
lclavicle -9.34288e-015 -4.37326e-015
lhumerus -32.0715 -6.59594 85.6823
lradius 20.9204
lwrist 7.09807
lhand -5.31823 -11.5436
lfingers 7.12502
lthumb 20.4876 17.3954
rfemur 4.78659 8.97983 20.6072
rtibia 0.74679
rfoot -20.3468 -20.401
rtoes 4.79345
lfemur 0.122103 -1.74993 -17.8392
ltibia 3.71913
lfoot -2.95132 -7.67306
ltoes 28.9094
101
root 6.43127 18.0966 -32.1453 3.61041 4.97197 1.31614
lowerback -7.20209 0.926537 -0.111266
upperback -1.11733 1.29424 -1.59421
thorax 2.91784 0.650372 -1.45788
lowerneck -1.95913 -2.49036 -0.615454
upperneck 5.5361 -3.47482 3.09277
head 2.14375 -1.6672 0.995348
rclavicle 7.33018e-015 -5.1684e-015
rhumerus -40.6752 -11.0338 -76.49
rradius 22.7882
rwrist 9.79239
rhand 4.89971 -23.3105
rfingers 7.12502
rthumb 30.2743 -50.8478
lclavicle 7.33018e-015 -5.1684e-015
lhumerus -31.9345 -6.48617 85.5986
lradius 20.8796
lwrist 7.00833
lhand -5.31709 -11.0388
lfingers 7.12502
lthumb 20.4887 17.9001
rfemur 4.81526 8.97467 20.6284
rtibia 0.736381
rfoot -20.3985 -20.4403
rtoes 4.93586
lfemur 0.143287 -1.81112 -17.8367
ltibia 3.71111
lfoot -2.94775 -7.62013
ltoes 29.3226
102
root 6.43173 18.0961 -32.1444 3.63494 4.96953 1.31946
lowerback -7.1985 0.961153 -0.102602
upperback -1.12214 1.34043 -1.62088
thorax 2.91289 0.673557 -1.48593
lowerneck -1.97313 -2.48836 -0.642822
upperneck 5.55407 -3.47703 3.19035
head 2.15532 -1.6661 1.03093
rclavicle 1.0225e-014 -1.19271e-015
rhumerus -40.7792 -11.1173 -76.4424
rradius 22.7013
rwrist 9.81659
rhand 4.74594 -23.1975
rfingers 7.12502
rthumb 30.1276 -50.7616
lclavicle 1.0225e-014 -1.19271e-015
lhumerus -31.9923 -6.58959 85.583
lradius 20.915
lwrist 7.05486
lhand -5.52635 -10.7218
lfingers 7.12502
lthumb 20.2876 18.2386
rfemur 4.78512 8.9274 20.6116
rtibia 0.773721
rfoot -20.4371 -20.4079
rtoes 5.00522
lfemur 0.104069 -1.84627 -17.8478
ltibia 3.7205
lfoot -2.90328 -7.6494
ltoes 29.9446
103
root 6.43183 18.0957 -32.1427 3.65539 4.95451 1.27324
lowerback -7.1958 0.956048 -0.0663478
upperback -1.23727 1.32841 -1.59813
thorax 2.79245 0.667224 -1.48495
lowerneck -1.49339 -2.4297 -0.753987
upperneck 5.37978 -3.39458 3.31116
head 2.01588 -1.63061 1.09563
rclavicle -8.94531e-015 -5.96354e-015
rhumerus -41.0953 -10.923 -76.4008
rradius 22.6912
rwrist 9.69719
rhand 4.82243 -23.2769
rfingers 7.12502
rthumb 30.2006 -50.8276
lclavicle -8.94531e-015 -5.96354e-015
lhumerus -32.2578 -6.44016 85.5365
lradius 20.8968
lwrist 6.92126
lhand -5.58662 -10.6765
lfingers 7.12502
lthumb 20.2297 18.2901
rfemur 4.75621 8.86265 20.6512
rtibia 0.808203
rfoot -20.3637 -20.3016
rtoes 4.91831
lfemur 0.0881363 -1.83464 -17.7861
ltibia 3.71694
lfoot -2.92071 -7.64153
ltoes 29.9479
104
root 6.43079 18.0963 -32.1391 3.61192 4.92991 1.17832
lowerback -7.18581 0.829903 -0.064632
upperback -1.44549 1.1526 -1.44013
thorax 2.56406 0.578043 -1.34119
lowerneck -0.468194 -2.25908 -1.06803
upperneck 5.0492 -3.1522 3.40497
head 1.73026 -1.52668 1.19431
rclavicle -1.12438e-014 3.18055e-015
rhumerus -41.5645 -10.2887 -76.3358
rradius 22.7172
rwrist 9.53768
rhand 4.9781 -23.3067
rfingers 7.12502
rthumb 30.3491 -50.8302
lclavicle -1.12438e-014 3.18055e-015
lhumerus -32.8112 -5.80304 85.4719
lradius 20.8705
lwrist 6.67528
lhand -5.56809 -10.8404
lfingers 7.12502
lthumb 20.2475 18.1243
rfemur 4.82266 8.96244 20.7963
rtibia 0.749135
rfoot -20.2681 -20.3686
rtoes 5.09374
lfemur 0.172728 -1.80393 -17.6537
ltibia 3.67384
lfoot -3.02448 -7.64005
ltoes 29.5772
